<?xml version="1.0" encoding="utf-8"?>
<!-- Generator: Adobe Illustrator 22.1.0, SVG Export Plug-In . SVG Version: 6.00 Build 0)  -->
<!DOCTYPE svg PUBLIC "-//W3C//DTD SVG 1.1//EN" "http://www.w3.org/Graphics/SVG/1.1/DTD/svg11.dtd">
<svg version="1.1" id="Layer_1" xmlns="http://www.w3.org/2000/svg" xmlns:xlink="http://www.w3.org/1999/xlink" x="0px" y="0px"
	 viewBox="0 0 200 200" enable-background="new 0 0 200 200" xml:space="preserve">
<g>
	<path fill="none" stroke="#0C71C3" stroke-width="4" stroke-miterlimit="10" d="M87.9,143.6c0,0,0.7-6.5,0-14.8
		c-0.7-8.3-2.9-18.5-8.6-25.9c-11.4-14.8-15.8-27.2-4.5-43.4c11.9-17,41.1-15.3,51.7,0c9.7,14,6.2,28.7-5.1,44.5s-8,39.6-8,39.6
		H87.9z"/>
	<line fill="none" stroke="#0C71C3" stroke-width="4" stroke-miterlimit="10" x1="112.6" y1="128.9" x2="87.8" y2="128.9"/>
	
		<line fill="none" stroke="#0C71C3" stroke-width="4" stroke-linecap="round" stroke-miterlimit="10" x1="106.4" y1="136.5" x2="88.4" y2="136.5"/>
	
		<line fill="none" stroke="#0C71C3" stroke-width="4" stroke-linecap="round" stroke-miterlimit="10" x1="100.6" y1="128.9" x2="100.6" y2="105.5"/>
	
		<ellipse fill="none" stroke="#0C71C3" stroke-width="4" stroke-linecap="round" stroke-miterlimit="10" cx="100.5" cy="78.6" rx="7.4" ry="7.4"/>
	<polygon fill="none" stroke="#0C71C3" stroke-width="4" stroke-linecap="round" stroke-miterlimit="10" points="91.6,64.2 
		96.5,62.3 96.5,57.8 104,57.8 104,62.2 108.9,64.8 112.3,61.8 117.4,66.4 114.4,69.9 116.9,74.9 121.4,74.9 121.4,82.5 116.7,82.5 
		114.5,87.7 117.7,91 112.3,96.1 109.4,92.8 104.1,95 104.1,99.7 96.4,99.7 96.4,94.8 91.6,92.7 88.2,96.3 83.1,90.3 86.1,87.5 
		84,82 79.5,82.1 79.5,75 83.9,74.8 86.1,69.8 83.1,66.6 88.4,61.5 	"/>
	
		<line fill="none" stroke="#0C71C3" stroke-width="4" stroke-linecap="round" stroke-miterlimit="10" x1="91.4" y1="151.8" x2="109.6" y2="151.8"/>
</g>
</svg>
