<?xml version="1.0" encoding="utf-8"?>
<!-- Generator: Adobe Illustrator 22.1.0, SVG Export Plug-In . SVG Version: 6.00 Build 0)  -->
<!DOCTYPE svg PUBLIC "-//W3C//DTD SVG 1.1//EN" "http://www.w3.org/Graphics/SVG/1.1/DTD/svg11.dtd">
<svg version="1.1" id="Layer_1" xmlns="http://www.w3.org/2000/svg" xmlns:xlink="http://www.w3.org/1999/xlink" x="0px" y="0px"
	 viewBox="0 0 200 200" enable-background="new 0 0 200 200" xml:space="preserve">
<g>
	<g>
		<path fill="#0C71C3" d="M140,69.6c8.8,0,15.9,7.1,15.9,15.9v35.7c0,8.8-7.1,15.9-15.9,15.9H60.5c-8.8,0-15.9-7.1-15.9-15.9V85.5
			c0-8.8,7.1-15.9,15.9-15.9H140 M140,65.6H60.5c-11,0-19.9,9-19.9,19.9v35.7c0,11,9,19.9,19.9,19.9H140c11,0,19.9-9,19.9-19.9V85.5
			C159.9,74.6,151,65.6,140,65.6L140,65.6z"/>
	</g>
	<path fill="none" stroke="#0C71C3" stroke-width="4" stroke-miterlimit="10" d="M76.5,78L76.5,78c0-16.8,4.8-29.1,11.6-30.6h23.8
		c7,1.3,11.6,13.8,11.6,30.6v0"/>
</g>
</svg>
