<?xml version="1.0" encoding="utf-8"?>
<!-- Generator: Adobe Illustrator 22.1.0, SVG Export Plug-In . SVG Version: 6.00 Build 0)  -->
<!DOCTYPE svg PUBLIC "-//W3C//DTD SVG 1.1//EN" "http://www.w3.org/Graphics/SVG/1.1/DTD/svg11.dtd">
<svg version="1.1" id="Layer_1" xmlns="http://www.w3.org/2000/svg" xmlns:xlink="http://www.w3.org/1999/xlink" x="0px" y="0px"
	 viewBox="0 0 200 200" enable-background="new 0 0 200 200" xml:space="preserve">
<ellipse transform="matrix(0.7071 -0.7071 0.7071 0.7071 -41.491 100.008)" fill="none" stroke="#0C71C3" stroke-width="4" stroke-miterlimit="10" cx="100" cy="100.1" rx="47" ry="47"/>
<line fill="none" stroke="#0C71C3" stroke-width="4" stroke-miterlimit="10" x1="67.6" y1="66" x2="115.8" y2="66"/>
<line fill="none" stroke="#0C71C3" stroke-width="4" stroke-miterlimit="10" x1="143.7" y1="82.9" x2="78.6" y2="82.9"/>
<line fill="none" stroke="#0C71C3" stroke-width="4" stroke-miterlimit="10" x1="56.1" y1="115.9" x2="109.8" y2="115.9"/>
<line fill="none" stroke="#0C71C3" stroke-width="4" stroke-linecap="round" stroke-miterlimit="10" x1="137.5" y1="126.4" x2="74.4" y2="126.4"/>
<ellipse transform="matrix(0.604 -0.797 0.797 0.604 -48.8984 133.4281)" fill="#0C71C3" stroke="#0C71C3" stroke-width="4" stroke-miterlimit="10" cx="109.8" cy="115.9" rx="2.5" ry="2.5"/>
<ellipse transform="matrix(0.604 -0.797 0.797 0.604 -34.9324 95.4914)" fill="#0C71C3" stroke="#0C71C3" stroke-width="4" stroke-miterlimit="10" cx="78.6" cy="82.9" rx="2.5" ry="2.5"/>
<ellipse transform="matrix(0.604 -0.797 0.797 0.604 -6.7554 118.4789)" fill="#0C71C3" stroke="#0C71C3" stroke-width="4" stroke-miterlimit="10" cx="115.8" cy="66" rx="2.5" ry="2.5"/>
<line fill="none" stroke="#0C71C3" stroke-width="4" stroke-linecap="round" stroke-miterlimit="10" x1="62.7" y1="71.5" x2="91.7" y2="71.5"/>
<line fill="none" stroke="#0C71C3" stroke-width="4" stroke-linecap="round" stroke-miterlimit="10" x1="130.7" y1="134.5" x2="94.7" y2="134.5"/>
<ellipse transform="matrix(0.604 -0.797 0.797 0.604 -69.7102 128.7587)" fill="#0C71C3" stroke="#0C71C3" stroke-width="4" stroke-miterlimit="10" cx="94.7" cy="134.5" rx="2.5" ry="2.5"/>
</svg>
