<?xml version="1.0" encoding="utf-8"?>
<!-- Generator: Adobe Illustrator 22.1.0, SVG Export Plug-In . SVG Version: 6.00 Build 0)  -->
<!DOCTYPE svg PUBLIC "-//W3C//DTD SVG 1.1//EN" "http://www.w3.org/Graphics/SVG/1.1/DTD/svg11.dtd">
<svg version="1.1" id="Layer_1" xmlns="http://www.w3.org/2000/svg" xmlns:xlink="http://www.w3.org/1999/xlink" x="0px" y="0px"
	 viewBox="0 0 200 200" enable-background="new 0 0 200 200" xml:space="preserve">
<g>
	<g>
		<path fill="none" stroke="#0C71C3" stroke-width="4" stroke-miterlimit="10" d="M73.6,125.7c-3.2-2.3-6.5-4.4-9.6-6.8
			c-6.1-4.7-11.5-10.3-16.3-16.3c-1.2-1.5-1.3-3.1-0.1-4.6c10.4-13,22.9-23.2,39.2-28c11-3.3,21.9-2.7,32.5,1.4
			c1.1,0.4,1.7,0.3,2.4-0.6c6.6-7.7,13.3-15.3,19.9-23c1.1-1.2,2.3-1.9,3.9-1.5c2.8,0.7,3.7,3.8,1.8,6c-2.5,3-5.2,6-7.7,8.9
			c-25.6,29.4-51.1,58.7-76.7,88.1c-0.2,0.3-0.5,0.5-0.7,0.8c-1.5,1.6-3.5,1.8-5.1,0.4c-1.6-1.3-1.8-3.6-0.4-5.2
			c1.9-2.3,3.9-4.5,5.8-6.7c3.5-4.1,7-8.1,10.6-12.2C73.4,126.1,73.5,125.8,73.6,125.7z M55.3,99.7c3.4,5.6,17.7,17.7,23.6,20
			c2.1-2.4,4.1-4.8,6.3-7.2c0.7-0.8,0.7-1.3,0.1-2.1c-4.8-7.2-4.2-16.1,1.5-22.5c5.6-6.3,14.6-7.9,22.2-4c0.6,0.3,0.9,0.2,1.4-0.3
			c1.5-1.8,3-3.6,4.5-5.3c0.2-0.2,0.3-0.5,0.5-0.8c-0.3-0.1-0.4-0.2-0.5-0.2c-8.6-2.9-17.3-3-26-0.5c-9.3,2.7-17.3,7.7-24.4,14
			C61.2,93.7,58.3,96.8,55.3,99.7z M104.7,90.2c-4.2-2.1-9.7-0.7-12.8,3.1c-2.9,3.6-3.3,9.2-0.8,12.4
			C95.6,100.6,100.1,95.4,104.7,90.2z"/>
		<path fill="none" stroke="#0C71C3" stroke-width="4" stroke-miterlimit="10" d="M134,79.1c2.9,2.5,6,4.8,8.6,7.5
			c3.5,3.5,6.8,7.3,10.1,11c1.4,1.6,1.5,3.3,0.1,5c-9.8,12.3-21.6,21.9-36.6,27.1c-8.8,3-17.8,3.8-26.9,1.8c-0.2,0-0.4-0.1-0.8-0.2
			c1.9-2.1,3.7-4.2,5.5-6.2c0.1-0.2,0.5-0.2,0.7-0.2c9.2,1.1,17.9-0.9,26.1-5c9.4-4.7,17.3-11.4,24.2-19.2c0.1-0.1,0.1-0.2,0.3-0.4
			c-4.8-5.7-10.2-10.8-16.3-15.3C130.7,82.9,132.3,81.1,134,79.1z"/>
	</g>
	<path fill="#0C71C3" stroke="#0C71C3" stroke-width="4" stroke-miterlimit="10" d="M105.2,90.3c-4.2-2.1-9.7-0.7-12.8,3.1
		c-2.9,3.6-3.3,9.2-0.8,12.4C96.2,100.7,100.6,95.5,105.2,90.3z"/>
</g>
</svg>
