<?xml version="1.0" encoding="utf-8"?>
<!-- Generator: Adobe Illustrator 22.1.0, SVG Export Plug-In . SVG Version: 6.00 Build 0)  -->
<!DOCTYPE svg PUBLIC "-//W3C//DTD SVG 1.1//EN" "http://www.w3.org/Graphics/SVG/1.1/DTD/svg11.dtd">
<svg version="1.1" id="Layer_1" xmlns="http://www.w3.org/2000/svg" xmlns:xlink="http://www.w3.org/1999/xlink" x="0px" y="0px"
	 viewBox="0 0 200 200" enable-background="new 0 0 200 200" xml:space="preserve">
<g>
	<g>
		<path fill="#0C71C3" d="M108.1,103.2c1.3,0.5,2.6,1,4,1.5c1.6,0.6,3.2,1.2,4.8,1.8c3.6,1.3,5.8,3.5,7,6.9
			c2.8,8.3,4.3,17.4,4.5,27.9c0,0.1,0,0.1,0,0.1c-0.1,0.1-0.3,0.1-0.6,0.2l-1.3,0.3c-7.6,1.9-15.4,3.9-23.1,5.6
			c-2.4,0.5-4.8,0.8-7.4,1c-1.1,0.1-2.3,0.2-3.4,0.4h-8.8c-1.7-0.2-3.4-0.5-5-0.7c-4-0.5-7.7-1-11.5-1.8c-4.8-1-9.7-2.4-14.4-3.7
			c-1.5-0.4-2.9-0.8-4.4-1.2c-0.5-0.1-0.7-0.3-0.7-0.3c0,0,0,0,0,0c0,0-0.1-0.2-0.1-0.6c0.3-9.4,1.6-17.9,4-26
			c1.3-4.6,4.1-7.4,8.5-8.8c1.7-0.5,3.4-1.2,5-1.8c1-0.4,1.9-0.8,2.9-1.1c5.2,4.8,12.4,7.5,20,7.5C95.7,110.7,102.9,108,108.1,103.2
			 M107.8,98.9c-0.6,0-1.3,0.3-1.7,0.6c-4.7,4.8-11.4,7.2-18.1,7.2c-6.7,0-13.3-2.4-18.1-7.2c-0.3-0.3-1-0.5-1.6-0.5
			c-0.2,0-0.5,0-0.6,0.1c-3,1-5.8,2.3-8.8,3.2c-5.8,1.8-9.5,5.7-11.2,11.5c-2.6,8.8-3.8,17.8-4.1,26.9c-0.1,2.6,1.3,4.2,3.7,4.8
			c6.3,1.7,12.6,3.6,19,4.9c5.6,1.2,11.3,1.7,17,2.5c3.1,0,6.3,0,9.4,0c3.8-0.5,7.7-0.7,11.4-1.5c8.2-1.8,16.4-3.9,24.6-6
			c2.1-0.5,3.7-1.9,3.6-4.3c-0.2-9.9-1.5-19.6-4.7-29.1c-1.6-4.6-4.8-7.7-9.4-9.4c-3.4-1.2-6.7-2.6-10.1-3.8
			C108.1,98.9,107.9,98.9,107.8,98.9L107.8,98.9z"/>
	</g>
	<g>
		<path fill="#0C71C3" d="M88.8,46L88.8,46c6.8,0,11.7,2.1,15.4,6.7c3,3.7,4.1,8.2,4,16.3c-0.3,5.5-1.5,13.4-6.2,20.5
			c-3.2,4.9-8.5,7.9-14,7.9c-5.1,0-9.8-2.5-12.9-6.9c-6.4-9.1-8.5-19.5-6.2-30.9c1.6-7.5,7-12.2,15.2-13.1
			C85.8,46.1,87.3,46,88.8,46 M88.8,42c-1.7,0-3.4,0.1-5.2,0.3c-9.7,1.1-16.7,6.8-18.7,16.3c-2.5,12.2-0.4,23.9,6.8,34.1
			c4.1,5.8,10.1,8.6,16.2,8.6c6.5,0,13.1-3.3,17.3-9.6c5-7.5,6.6-16,6.9-22.5c0.1-8.3-0.9-14.1-4.9-18.9C102.3,44,95.8,42,88.8,42
			L88.8,42z"/>
	</g>
</g>
<path fill="none" stroke="#0C71C3" stroke-width="4" stroke-miterlimit="10" d="M126.2,64.7c0,0,14.8,10.1,0,27.5"/>
<path fill="none" stroke="#0C71C3" stroke-width="4" stroke-miterlimit="10" d="M136.7,59.7c0,0,17,15,0,37.5"/>
<path fill="none" stroke="#0C71C3" stroke-width="4" stroke-miterlimit="10" d="M144.3,51.6c0,0,25,24.9,0,54.1"/>
</svg>
