<?xml version="1.0" encoding="utf-8"?>
<!-- Generator: Adobe Illustrator 22.1.0, SVG Export Plug-In . SVG Version: 6.00 Build 0)  -->
<!DOCTYPE svg PUBLIC "-//W3C//DTD SVG 1.1//EN" "http://www.w3.org/Graphics/SVG/1.1/DTD/svg11.dtd">
<svg version="1.1" id="Layer_1" xmlns="http://www.w3.org/2000/svg" xmlns:xlink="http://www.w3.org/1999/xlink" x="0px" y="0px"
	 viewBox="0 0 200 200" enable-background="new 0 0 200 200" xml:space="preserve">
<g>
	<path fill="none" stroke="#0C71C3" stroke-width="3.9498" stroke-miterlimit="10" d="M72,147.9c-4.3-0.6-8.7-1-12.9-1.9
		c-4.9-1-9.6-2.4-14.4-3.7c-1.8-0.5-2.9-1.7-2.8-3.7c0.2-6.9,1.2-13.8,3.1-20.4c1.3-4.4,4-7.3,8.5-8.7c2.2-0.7,4.4-1.7,6.6-2.4
		c0.5-0.2,1.4,0,1.7,0.3c7.2,7.3,20.3,7.3,27.4,0c0.3-0.3,1.1-0.6,1.6-0.4c2.6,0.9,5.1,2,7.7,2.9c3.5,1.3,6,3.6,7.2,7.1
		c2.4,7.1,3.4,14.5,3.6,22c0,1.9-1.1,2.9-2.8,3.3c-6.2,1.6-12.4,3.1-18.7,4.5c-2.8,0.6-5.8,0.8-8.7,1.2
		C76.7,147.9,74.3,147.9,72,147.9z"/>
	<path fill="none" stroke="#0C71C3" stroke-width="3.9498" stroke-miterlimit="10" d="M93.7,82.2c-0.2,5-1.4,11.4-5.2,17.1
		c-6.2,9.3-19,9.9-25.4,0.8c-5.5-7.7-7.1-16.6-5.2-25.8c1.5-7.2,6.8-11.5,14.2-12.4c6.9-0.8,13.3,0.2,17.9,5.9
		C93,71.5,93.8,75.9,93.7,82.2z"/>
</g>
<path fill="none" stroke="#0C71C3" stroke-width="3.9498" stroke-miterlimit="10" d="M146.1,132.2c6.4-3.3,11-10.9,11-19.7V74
	c0-11.8-8.2-21.4-18.2-21.4H66.3c-10,0-18.2,9.6-18.2,21.4v38.5"/>
<path fill="none" stroke="#0C71C3" stroke-width="3.9498" stroke-miterlimit="10" d="M157.1,129.5"/>
<g>
	<path fill="#0C71C3" d="M107.9,140.2l21.5-53.7l-17.8,55.1c-0.3,1-1.4,1.6-2.5,1.3s-1.6-1.4-1.3-2.5
		C107.9,140.3,107.9,140.3,107.9,140.2z"/>
</g>
</svg>
