<?xml version="1.0" encoding="utf-8"?>
<!-- Generator: Adobe Illustrator 22.1.0, SVG Export Plug-In . SVG Version: 6.00 Build 0)  -->
<!DOCTYPE svg PUBLIC "-//W3C//DTD SVG 1.1//EN" "http://www.w3.org/Graphics/SVG/1.1/DTD/svg11.dtd">
<svg version="1.1" id="Layer_1" xmlns="http://www.w3.org/2000/svg" xmlns:xlink="http://www.w3.org/1999/xlink" x="0px" y="0px"
	 viewBox="0 0 200 200" enable-background="new 0 0 200 200" xml:space="preserve">
<g>
	<rect x="91.7" y="90" fill="none" stroke="#0C71C3" stroke-width="4" stroke-miterlimit="10" width="18.1" height="18.1"/>
	<path fill="none" stroke="#0C71C3" stroke-width="4" stroke-miterlimit="10" d="M128.4,118.3c0,4.5-3.7,8.2-8.2,8.2h-1.3H71.7v-55
		h56.7V118.3L128.4,118.3z"/>
	<line fill="none" stroke="#0C71C3" stroke-width="4" stroke-miterlimit="10" x1="79.5" y1="71.5" x2="79.5" y2="60.6"/>
	<polyline fill="none" stroke="#0C71C3" stroke-width="4" stroke-miterlimit="10" points="99,71.5 99,58.6 117.6,58.6 	"/>
	<circle fill="#0C71C3" stroke="#0C71C3" stroke-width="4" stroke-miterlimit="10" cx="79.5" cy="58.6" r="3.1"/>
	<circle fill="#0C71C3" stroke="#0C71C3" stroke-width="4" stroke-miterlimit="10" cx="99" cy="58.6" r="3.1"/>
	<g>
		<circle fill="#0C71C3" stroke="#0C71C3" stroke-width="4" stroke-miterlimit="10" cx="121.2" cy="58.6" r="5"/>
		<circle fill="#FFFFFF" cx="121.2" cy="58.6" r="3.1"/>
	</g>
	<line fill="none" stroke="#0C71C3" stroke-width="4" stroke-miterlimit="10" x1="128.4" y1="78" x2="139.2" y2="78"/>
	
		<ellipse transform="matrix(0.6118 -0.791 0.791 0.6118 -6.8344 142.0506)" fill="#0C71C3" stroke="#0C71C3" stroke-width="4" stroke-miterlimit="10" cx="141.3" cy="78" rx="3.1" ry="3.1"/>
	<line fill="none" stroke="#0C71C3" stroke-width="4" stroke-miterlimit="10" x1="128.5" y1="96.9" x2="139.4" y2="96.9"/>
	
		<ellipse transform="matrix(0.6118 -0.791 0.791 0.6118 -21.7401 149.5024)" fill="#0C71C3" stroke="#0C71C3" stroke-width="4" stroke-miterlimit="10" cx="141.4" cy="96.9" rx="3.1" ry="3.1"/>
	<circle fill="#0C71C3" stroke="#0C71C3" stroke-width="4" stroke-miterlimit="10" cx="155.8" cy="96.9" r="5"/>
	<circle fill="#FFFFFF" cx="155.8" cy="96.9" r="3.1"/>
	<polyline fill="none" stroke="#0C71C3" stroke-width="4" stroke-miterlimit="10" points="128.4,114.2 141.3,114.2 141.3,130.5 	"/>
	<circle fill="#0C71C3" stroke="#0C71C3" stroke-width="4" stroke-miterlimit="10" cx="141.3" cy="114.2" r="3.1"/>
	<g>
		<circle fill="#0C71C3" stroke="#0C71C3" stroke-width="4" stroke-miterlimit="10" cx="141.3" cy="135.5" r="5"/>
		<circle fill="#FFFFFF" cx="141.3" cy="135.5" r="3.1"/>
	</g>
	<line fill="none" stroke="#0C71C3" stroke-width="4" stroke-miterlimit="10" x1="119.3" y1="126.5" x2="119.3" y2="137.4"/>
	
		<ellipse transform="matrix(0.1508 -0.9886 0.9886 0.1508 -36.5309 236.3151)" fill="#0C71C3" stroke="#0C71C3" stroke-width="4" stroke-miterlimit="10" cx="119.3" cy="139.4" rx="3.1" ry="3.1"/>
	<line fill="none" stroke="#0C71C3" stroke-width="4" stroke-miterlimit="10" x1="100.4" y1="126.7" x2="100.4" y2="137.5"/>
	
		<ellipse transform="matrix(0.1508 -0.9886 0.9886 0.1508 -52.7273 217.7381)" fill="#0C71C3" stroke="#0C71C3" stroke-width="4" stroke-miterlimit="10" cx="100.4" cy="139.6" rx="3.1" ry="3.1"/>
	<polyline fill="none" stroke="#0C71C3" stroke-width="4" stroke-miterlimit="10" points="81.3,126.6 81.3,139.5 65,139.5 	"/>
	<circle fill="#0C71C3" stroke="#0C71C3" stroke-width="4" stroke-miterlimit="10" cx="81.3" cy="139.5" r="3.1"/>
	<g>
		<circle fill="#0C71C3" stroke="#0C71C3" stroke-width="4" stroke-miterlimit="10" cx="60" cy="139.5" r="5"/>
		<circle fill="#FFFFFF" cx="60" cy="139.5" r="3.1"/>
	</g>
	<line fill="none" stroke="#0C71C3" stroke-width="4" stroke-miterlimit="10" x1="71.7" y1="117.3" x2="60.8" y2="117.3"/>
	<circle fill="#0C71C3" stroke="#0C71C3" stroke-width="4" stroke-miterlimit="10" cx="58.8" cy="117.3" r="3.1"/>
	<line fill="none" stroke="#0C71C3" stroke-width="4" stroke-miterlimit="10" x1="71.6" y1="98.2" x2="60.7" y2="98.2"/>
	<circle fill="#0C71C3" stroke="#0C71C3" stroke-width="4" stroke-miterlimit="10" cx="58.7" cy="98.2" r="3.1"/>
	<line fill="none" stroke="#0C71C3" stroke-width="4" stroke-miterlimit="10" x1="71.6" y1="79.2" x2="60.7" y2="79.2"/>
	<circle fill="#0C71C3" stroke="#0C71C3" stroke-width="4" stroke-miterlimit="10" cx="58.7" cy="79.2" r="3.1"/>
	<circle fill="#0C71C3" stroke="#0C71C3" stroke-width="4" stroke-miterlimit="10" cx="44.6" cy="79.2" r="5"/>
</g>
</svg>
