<?xml version="1.0" encoding="utf-8"?>
<!-- Generator: Adobe Illustrator 22.1.0, SVG Export Plug-In . SVG Version: 6.00 Build 0)  -->
<!DOCTYPE svg PUBLIC "-//W3C//DTD SVG 1.1//EN" "http://www.w3.org/Graphics/SVG/1.1/DTD/svg11.dtd">
<svg version="1.1" id="Layer_1" xmlns="http://www.w3.org/2000/svg" xmlns:xlink="http://www.w3.org/1999/xlink" x="0px" y="0px"
	 viewBox="0 0 200 200" enable-background="new 0 0 200 200" xml:space="preserve">
<g>
	<path fill="none" stroke="#0C71C3" stroke-width="4" stroke-miterlimit="10" d="M132.7,131.8c1.5,4.3,3,8.8,4.6,13.4
		c-2.8,2-5.6,4-8.5,6c-0.6-0.8-1-1.5-1.5-2.1c-2.7-3.8-5.3-7.7-8.1-11.5c-2.2-3-4.9-4.8-8.6-6.1c-4.7-1.7-8.6-2.5-13.6-1.1
		c-5.6,1.6-11.2-0.5-15.6-4.4c-1.1-1-2-1.1-3.4-0.6c-7,2.5-13.5,1.5-19.4-3c-0.9-0.7-1.8-1.3-2.8-1.9c-6.7-4.4-9.5-11.9-7.5-19.6
		c0.3-1,0.3-2.2,0.1-3.2c-2.4-8.9,1.4-17.2,9.9-21.2c1-0.5,2-1.4,2.5-2.3c3.6-7.5,9.6-10.9,17.7-11.4c1.3-0.1,2.9-0.6,3.9-1.5
		c7-6.3,17.2-7,25-1.6c1.1,0.7,2.8,1.1,4,0.9c14.3-3.3,28.7,4.8,32.5,17.5c0.3,0.9,1.1,1.7,1.8,2.3c7.8,6.3,9.2,15.9,3.6,24.1
		c-0.6,0.8-0.9,2-0.8,3c0.7,5.8-1,10.8-5.1,14.8C139.9,125.5,136.3,128.5,132.7,131.8z M124.5,127.3c1.5-0.4,2.7-0.4,3.8-1
		c1.6-0.8,3.1-1.7,4.4-2.7c1.6-1.3,3.2-2.7,4.5-4.3c1.7-2.1,3.8-4.3,4.5-6.8c0.6-2.1,0.2-5.3-1-7.1l3.7-5.4c3.5-5.5,1.8-11.8-4-15.5
		c-1-0.6-1.9-1.8-2.2-2.8c-2.8-10.1-11.7-16.6-22.2-15.5c-2.5,0.3-5.2,1.1-7.3,2.4l-5.4-3.9c-6.3-3.9-14-2.9-17.9,2.6
		c-1.5,2.2-3,2.4-5.3,2C73.6,68.1,67.4,72,66,78.3c-0.4,2-1.3,2.7-3.2,3.2c-7.7,2.1-10.9,9-7.8,16.3c0.4,0.9,0.2,2.3-0.2,3.3
		c-1.7,4-1.7,7.9,1.1,11.2c3.2,3.7,7,6.9,11.9,7.9c2.3,0.5,4.8-0.1,7.2-0.4l8.9-2.4c0.4,1.5,0.9,3.3,2,4.3c4.4,4,11.1,4.1,16.1,0.4
		l6.9,2.7C109.1,124.7,120.1,129.5,124.5,127.3z"/>
</g>
<g>
	<path fill="#ED1C24" stroke="#0C71C3" stroke-width="4" stroke-miterlimit="10" d="M82.7,91.9c0-0.5,0-1.1,0-1.6
		c0-0.1,0-0.2,0.1-0.3c0.1-0.7,0.2-1.4,0.5-2.1c0.8-2.4,2.3-4.3,4.4-5.6c2-1.2,4.3-1.6,6.6-1.2c2.3,0.4,4.2,1.4,5.8,3.1
		c0.1,0.1,0.1,0.2,0.2,0.3c0.4-0.4,0.7-0.7,1-1c1.9-1.8,4.2-2.7,6.8-2.8c2.6,0,4.8,0.8,6.7,2.6c2,1.8,3.2,4.1,3.3,6.9
		c0.1,2.3-0.5,4.4-1.6,6.4c-1,1.8-2.3,3.3-3.6,4.8c-1.6,1.7-3.4,3.3-5.2,4.8c-2.2,1.8-4.4,3.5-6.8,5.1c-0.2,0.1-0.3,0.1-0.4,0
		c-1.6-1.1-3.2-2.1-4.8-3.3c-1.6-1.2-3.2-2.5-4.8-3.8c-2-1.7-3.8-3.5-5.4-5.6c-1.2-1.6-2-3.3-2.5-5.3C82.9,92.8,82.8,92.3,82.7,91.9
		z"/>
</g>
</svg>
